<svg width="36" height="38" viewBox="0 0 36 38" fill="none" xmlns="http://www.w3.org/2000/svg">
<path d="M23.0006 5.9375H12.9983C11.0432 5.93907 9.16865 6.75956 7.78622 8.21879C6.40379 9.67802 5.62649 11.6567 5.625 13.7204V24.2784C5.62619 26.3423 6.40336 28.3213 7.78582 29.7808C9.16828 31.2403 11.043 32.0609 12.9983 32.0625H23.0006C24.9558 32.0606 26.8303 31.2399 28.2127 29.7804C29.5951 28.321 30.3724 26.3422 30.3739 24.2784V13.7204C30.373 11.6565 29.5959 9.67746 28.2133 8.21809C26.8308 6.75873 24.9559 5.93844 23.0006 5.9375ZM27.8854 24.2784C27.8851 25.6458 27.3703 26.9571 26.4543 27.924C25.5383 28.8909 24.296 29.4342 23.0006 29.4346H12.9983C12.3568 29.4346 11.7217 29.3012 11.1291 29.0421C10.5365 28.7829 9.99811 28.4031 9.54461 27.9243C9.09111 27.4455 8.7314 26.8771 8.48605 26.2515C8.24069 25.6259 8.11448 24.9555 8.11462 24.2784V13.7204C8.11448 13.0434 8.24069 12.373 8.48607 11.7475C8.73144 11.122 9.09116 10.5536 9.54468 10.0749C9.99819 9.59622 10.5366 9.21652 11.1292 8.95752C11.7218 8.69851 12.3569 8.56528 12.9983 8.56544H23.0006C24.2958 8.56575 25.5377 9.10896 26.4535 10.0756C27.3693 11.0423 27.884 12.3533 27.8842 13.7204L27.8854 24.2784Z" fill="#4B5589"/>
<path d="M18 12.2454C14.4698 12.2454 11.601 15.2748 11.601 18.9999C11.601 22.7251 14.4709 25.7544 18 25.7544C21.5291 25.7544 24.399 22.7251 24.399 18.9999C24.399 15.2748 21.5303 12.2454 18 12.2454ZM18 23.1265C16.9632 23.1267 15.9688 22.6921 15.2355 21.9183C14.5022 21.1445 14.0902 20.095 14.0901 19.0005C14.0899 17.9061 14.5017 16.8564 15.2347 16.0824C15.9678 15.3085 16.9621 14.8735 17.9989 14.8734C19.0357 14.8732 20.0301 15.3078 20.7634 16.0816C21.4967 16.8554 21.9087 17.9049 21.9088 18.9994C21.909 20.0938 21.4972 21.1435 20.7642 21.9174C20.0311 22.6914 19.0368 23.1264 18 23.1265ZM24.4125 10.6768C24.7157 10.677 25.012 10.7721 25.264 10.95C25.516 11.128 25.7123 11.3808 25.8283 11.6765C25.9442 11.9722 25.9744 12.2975 25.9152 12.6114C25.856 12.9252 25.71 13.2135 25.4956 13.4398C25.2813 13.6661 25.0082 13.8202 24.7108 13.8827C24.4135 13.9452 24.1053 13.9133 23.8251 13.7909C23.545 13.6685 23.3055 13.4613 23.1369 13.1953C22.9683 12.9293 22.8782 12.6165 22.878 12.2965C22.878 11.4035 23.4518 10.6768 24.4125 10.6768Z" fill="#4B5589"/>
</svg>
