<svg width="30" height="30" viewBox="0 0 30 30" fill="none" xmlns="http://www.w3.org/2000/svg">
<path d="M15.0014 22.5029C19.1438 22.5029 22.5019 19.1448 22.5019 15.0024C22.5019 10.86 19.1438 7.50195 15.0014 7.50195C10.859 7.50195 7.50098 10.86 7.50098 15.0024C7.50098 19.1448 10.859 22.5029 15.0014 22.5029Z" fill="#B0B0B0"/>
<path fill-rule="evenodd" clip-rule="evenodd" d="M5.62547 14.9985C5.62547 13.9621 4.78688 13.1235 3.75047 13.1235H1.875C0.838594 13.1235 0 13.9621 0 14.9985C0 16.0349 0.838594 16.8735 1.875 16.8735H3.75C4.78688 16.8735 5.62547 16.0349 5.62547 14.9985Z" fill="#B0B0B0"/>
<path fill-rule="evenodd" clip-rule="evenodd" d="M5.72074 21.6276L4.39324 22.9556C3.66059 23.6878 3.66059 24.8746 4.39324 25.6068C5.12543 26.339 6.3123 26.339 7.04496 25.6068L8.37293 24.2793C9.10512 23.5471 9.10512 22.3598 8.37293 21.6276C7.6398 20.895 6.4534 20.895 5.72074 21.6276Z" fill="#B0B0B0"/>
<path fill-rule="evenodd" clip-rule="evenodd" d="M15.0015 24.3745C13.9651 24.3745 13.1265 25.2131 13.1265 26.2495V28.125C13.1265 29.1614 13.9651 30 15.0015 30C16.0379 30 16.8765 29.1614 16.8765 28.125L16.8746 26.2495C16.8765 25.2131 16.036 24.3745 15.0015 24.3745Z" fill="#B0B0B0"/>
<path fill-rule="evenodd" clip-rule="evenodd" d="M24.2803 21.6294C23.5495 20.8953 22.3626 20.8953 21.6304 21.6275C20.8983 22.3597 20.8983 23.5471 21.6304 24.2792L22.9565 25.6049C23.6887 26.3408 24.8756 26.3371 25.6078 25.6049C26.34 24.8727 26.3418 23.6877 25.6078 22.9536L24.2803 21.6294Z" fill="#B0B0B0"/>
<path fill-rule="evenodd" clip-rule="evenodd" d="M28.1279 13.1235L26.2487 13.1273C25.216 13.1235 24.3775 13.9621 24.3775 14.9985C24.3737 16.0349 25.216 16.8735 26.2487 16.8735H28.1242C29.1643 16.8773 29.9992 16.0349 29.9992 14.9985C30.001 13.964 29.1643 13.1235 28.1279 13.1235Z" fill="#B0B0B0"/>
<path fill-rule="evenodd" clip-rule="evenodd" d="M24.2803 8.37123L25.6059 7.04514C26.3437 6.31107 26.3381 5.12607 25.6059 4.39342C24.8751 3.65889 23.6887 3.65889 22.9565 4.39154L21.6304 5.72092C20.8983 6.44982 20.8983 7.63623 21.6304 8.36889C22.3589 9.10576 23.5495 9.10201 24.2803 8.37123Z" fill="#B0B0B0"/>
<path fill-rule="evenodd" clip-rule="evenodd" d="M15.0015 5.62273C16.036 5.63023 16.8765 4.78413 16.8765 3.75148V1.87648C16.8765 0.836321 16.0379 0.00147737 15.0015 0.00147737C13.9651 -0.00227263 13.1265 0.836321 13.1265 1.8732L13.1302 3.75195C13.1265 4.78413 13.9651 5.62273 15.0015 5.62273Z" fill="#B0B0B0"/>
<path fill-rule="evenodd" clip-rule="evenodd" d="M5.72445 8.36942C6.45335 9.1016 7.63648 9.1016 8.37101 8.36754C9.10882 7.64051 9.10507 6.45035 8.37476 5.71957L7.04866 4.39395C6.31273 3.65754 5.1296 3.66317 4.39695 4.39395C3.65866 5.12473 3.65866 6.31114 4.39132 7.04379L5.72445 8.36942Z" fill="#B0B0B0"/>
</svg>
