<svg width="36" height="36" viewBox="0 0 36 36" fill="none" xmlns="http://www.w3.org/2000/svg">
<path d="M18 30C21.1826 30 24.2348 28.7357 26.4853 26.4853C28.7357 24.2348 30 21.1826 30 18C30 14.8174 28.7357 11.7652 26.4853 9.51472C24.2348 7.26428 21.1826 6 18 6C14.8174 6 11.7652 7.26428 9.51472 9.51472C7.26428 11.7652 6 14.8174 6 18C6 21.1826 7.26428 24.2348 9.51472 26.4853C11.7652 28.7357 14.8174 30 18 30ZM18 33C9.7155 33 3 26.2845 3 18C3 9.7155 9.7155 3 18 3C26.2845 3 33 9.7155 33 18C33 26.2845 26.2845 33 18 33Z" fill="#4B5589"/>
<path d="M23.466 17.1062C23.484 14.8682 21.6375 12.8162 19.35 12.5327L19.2 12.5102C19.0853 12.4874 18.9689 12.4744 18.852 12.4712C18.3825 12.4712 18.258 12.8102 18.225 13.0127C18.2063 13.0968 18.2046 13.1838 18.2201 13.2685C18.2355 13.3533 18.2678 13.4341 18.315 13.5062C18.471 13.7237 18.744 13.7612 18.963 13.7942C19.0275 13.8032 19.089 13.8107 19.1385 13.8242C21.195 14.2967 21.888 15.0422 22.2255 17.1467C22.2345 17.1992 22.2375 17.2622 22.2405 17.3297C22.2555 17.5802 22.287 18.1037 22.833 18.1037C22.878 18.1037 22.926 18.1007 22.977 18.0917C23.4855 18.0122 23.469 17.5337 23.4615 17.3042C23.4585 17.2397 23.457 17.1782 23.4615 17.1377C23.4632 17.1278 23.4642 17.1177 23.4645 17.1077L23.466 17.1062Z" fill="#4B5589"/>
<path d="M18.72 11.7103C18.78 11.7148 18.84 11.7193 18.8865 11.7268C22.2615 12.2638 23.8155 13.9138 24.246 17.4268C24.2535 17.4868 24.2535 17.5588 24.255 17.6368C24.2595 17.9113 24.2685 18.4813 24.8625 18.4933H24.8805C24.9621 18.4977 25.0436 18.4845 25.1197 18.4548C25.1957 18.425 25.2645 18.3794 25.3215 18.3208C25.506 18.1213 25.494 17.8258 25.4835 17.5858C25.4805 17.5288 25.4775 17.4733 25.479 17.4253C25.521 13.8328 22.509 10.5748 19.032 10.4548L18.99 10.4563C18.9766 10.4583 18.9631 10.4593 18.9495 10.4593C18.915 10.4593 18.8715 10.4563 18.8265 10.4533C18.7725 10.4488 18.7095 10.4443 18.6465 10.4443C18.093 10.4443 17.988 10.8493 17.9745 11.0923C17.9445 11.6518 18.468 11.6923 18.72 11.7103ZM24.0825 21.9658C24.0103 21.9093 23.9388 21.8517 23.868 21.7933C23.499 21.4873 23.106 21.2053 22.728 20.9323C22.6489 20.8755 22.5699 20.8185 22.491 20.7613C22.005 20.4103 21.5685 20.2378 21.156 20.2378C20.601 20.2378 20.1165 20.5558 19.716 21.1813C19.539 21.4573 19.323 21.5923 19.059 21.5923C18.8747 21.5858 18.694 21.5392 18.5295 21.4558C16.962 20.7208 15.8415 19.5958 15.201 18.1108C14.892 17.3908 14.991 16.9228 15.537 16.5403C15.846 16.3243 16.422 15.9208 16.3815 15.1483C16.3365 14.2708 14.46 11.6308 13.6695 11.3308C13.3323 11.2036 12.9604 11.2025 12.6225 11.3278C11.715 11.6428 11.0625 12.1978 10.737 12.9283C10.422 13.6363 10.437 14.4658 10.779 15.3298C11.7645 17.8288 13.149 20.0068 14.898 21.8038C16.608 23.5633 18.711 25.0033 21.147 26.0863C21.366 26.1838 21.597 26.2363 21.765 26.2753L21.9075 26.3113C21.927 26.3169 21.9472 26.32 21.9675 26.3203H21.987C23.133 26.3203 24.5085 25.2403 24.9315 24.0073C25.302 22.9273 24.6255 22.3948 24.0825 21.9673V21.9658ZM19.227 14.5648C19.032 14.5693 18.6225 14.5798 18.4785 15.0088C18.4125 15.2098 18.42 15.3838 18.5025 15.5263C18.624 15.7363 18.858 15.8008 19.0695 15.8353C19.8375 15.9628 20.2335 16.4023 20.3115 17.2153C20.349 17.5963 20.5965 17.8603 20.9145 17.8603C20.9385 17.8608 20.9626 17.8598 20.9865 17.8573C21.369 17.8093 21.5535 17.5198 21.537 16.9948C21.543 16.4458 21.2655 15.8248 20.793 15.3298C20.319 14.8318 19.7475 14.5513 19.227 14.5648Z" fill="#4B5589"/>
</svg>
