<svg width="46" height="33" viewBox="0 0 46 33" fill="none" xmlns="http://www.w3.org/2000/svg">
<path d="M2.92967 32.45H43.3376C44.6312 32.45 45.6834 31.3318 45.6834 30.0377V2.29075C45.6834 2.2858 45.685 2.3144 45.685 2.30945C45.685 1.01805 44.6323 0 43.3382 0H43.3371H3.11997H2.92912C1.63552 0 0.583374 0.98725 0.583374 2.28085V30.0377C0.583374 31.3318 1.63552 32.45 2.92967 32.45ZM16.8221 14.9171L2.78337 28.8431V4.3395L16.8221 14.9171ZM43.4834 4.5023V27.7612L30.2361 14.6195L43.4834 4.5023ZM28.481 15.961C28.5052 15.9901 28.5261 16.0539 28.5536 16.082L42.8036 30.25H4.55492L18.5981 16.2871L22.7126 19.371C22.9084 19.5184 23.1411 19.5844 23.3743 19.5844C23.6097 19.5844 23.8445 19.5052 24.042 19.3545L28.481 15.961ZM42.9592 2.2L23.3704 17.1611L3.51267 2.2H42.9592Z" fill="white"/>
</svg>
