<svg width="184" height="183" viewBox="0 0 184 183" fill="none" xmlns="http://www.w3.org/2000/svg">
<path d="M9.5 182.5L6.5 181.5L5.5 181L4 179.5L2.5 178L2 177L1.5 175.5L1 174.5V173.5V139V136.5L1.5 134.5L2 133L3 131L5 129L8 127.5L10.5 127H14.5L20.5 126.5L26 126L30.5 125.5L34.5 124.5L42.5 122.5L49 121H51H52.5L55.5 122L57 123L67.5 133.5L80 146L93 138.5L104 130.5L115.5 121L122 114.5L137.5 95L146 80.5L146.5 79.5L140.5 73.5L127 60L125 58L123.5 56.5L123 55L122 53.5L121.5 52V51V49L122.5 46L123.5 42L124.5 38L126 30.5L127 23L127.5 18V14.5V10.5L128 8.5L128.5 6.5L129.5 5L131 3.5L132.5 2.5L134.5 1.5L136.5 1H155.5H174L176.5 1.5L180 3.5L182 6.5L183 9L183.5 10V12L182.5 29L182 31L181.5 37L180 45L177.5 56L175 64L172.5 71L170.5 76L167.5 83L164.5 89L159.5 98L154.5 106L149.5 113L139.5 125.5L133 132L127.5 137.5L120.5 143.5L111.5 150.5L106.5 154L94 161.5L84 166.5L72 171.5L62 175L55 177L48 178.5L37.5 180.5L30 181.5L24 182L17 182.5H13.5H9.5Z" fill="#E8EBF6" stroke="#E8EBF6"/>
<path d="M20 146.5V161.5L30.5 160.5L44 158.5L54 155.5L58.5 153.5L52.5 148L46.5 142L37.5 144L30 145.5L20 146.5Z" fill="#7D76C8" stroke="#7D76C8"/>
<path d="M149.582 18.2327L165.121 19.0086L163.562 29.4438L160.817 42.8235L157.21 52.6559L154.914 57.0469L149.515 50.7699L143.598 44.467L146.119 35.5817L148.047 28.1686L149.582 18.2327Z" fill="#7D76C8" stroke="#7D76C8"/>
</svg>
