<svg width="44" height="37" viewBox="0 0 44 37" fill="none" xmlns="http://www.w3.org/2000/svg">
<path d="M40.1451 0.613369C40.1451 0.613369 44.1923 -0.964756 43.855 2.86784C43.7426 4.44598 42.7308 9.96942 41.9439 15.9438L39.2457 33.6414C39.2457 33.6414 39.0209 36.234 36.9973 36.6849C34.9736 37.1358 31.9383 35.1068 31.3761 34.6559C30.9265 34.3178 22.9446 29.2451 20.134 26.7653C19.347 26.0889 18.4476 24.7362 20.2464 23.1581L32.0507 11.8858C33.3998 10.5331 34.7489 7.37682 29.1277 11.2094L13.3886 21.9182C13.3886 21.9182 11.5899 23.0454 8.21729 22.0309L0.909813 19.7764C0.909813 19.7764 -1.78832 18.0856 2.82099 16.3946C14.0632 11.0966 27.8911 5.68588 40.1451 0.613369Z" fill="white"/>
</svg>
