<svg version="1.1" xmlns="http://www.w3.org/2000/svg" xmlns:xlink="http://www.w3.org/1999/xlink" width="800px" height="800px" viewBox="0,0,256,256"><g fill="#9a8adb" fill-rule="nonzero" stroke="none" stroke-width="1" stroke-linecap="butt" stroke-linejoin="miter" stroke-miterlimit="10" stroke-dasharray="" stroke-dashoffset="0" font-family="none" font-weight="none" font-size="none" text-anchor="none" style="mix-blend-mode: normal"><g transform="translate(0.4,0) scale(8,8)"><path d="M18.8,16l5.5,-5.5c0.8,-0.8 0.8,-2 0,-2.8v0c-0.3,-0.4 -0.8,-0.7 -1.3,-0.7c-0.5,0 -1,0.2 -1.4,0.6l-5.6,5.6l-5.5,-5.5c-0.8,-0.8 -2.1,-0.8 -2.8,0c-0.4,0.3 -0.7,0.8 -0.7,1.4c0,0.6 0.2,1 0.6,1.4l5.5,5.5l-5.5,5.5c-0.3,0.4 -0.6,0.9 -0.6,1.5c0,0.5 0.2,1 0.6,1.4c0.4,0.4 0.9,0.6 1.4,0.6c0.5,0 1,-0.2 1.4,-0.6l5.5,-5.5l5.5,5.5c0.8,0.8 2.1,0.8 2.8,0c0.8,-0.8 0.8,-2.1 0,-2.8z"></path></g></g></svg>