<svg width="55" height="55" viewBox="0 0 55 55" fill="none" xmlns="http://www.w3.org/2000/svg">
<path d="M7.61705 43.45H47.2387C48.5072 43.45 49.5388 42.3318 49.5388 41.0377V13.2908C49.5388 13.2858 49.5404 13.3144 49.5404 13.3094C49.5404 12.018 48.5082 11 47.2393 11H47.2382H7.80365H7.61651C6.34808 11 5.31641 11.9872 5.31641 13.2808V41.0377C5.31641 42.3318 6.34808 43.45 7.61705 43.45ZM21.2392 25.9171L7.4736 39.8431V15.3395L21.2392 25.9171ZM47.3816 15.5023V38.7612L34.3921 25.6195L47.3816 15.5023ZM32.6712 26.961C32.6949 26.9901 32.7154 27.0539 32.7424 27.082L46.7151 41.25H9.21068L22.9806 27.2871L27.0151 30.371C27.207 30.5184 27.4352 30.5844 27.6638 30.5844C27.8946 30.5844 28.1249 30.5052 28.3185 30.3545L32.6712 26.961ZM46.8677 13.2L27.6601 28.1611L8.18871 13.2H46.8677Z" fill="#8887CF"/>
</svg>
