<svg version="1.1" xmlns="http://www.w3.org/2000/svg" xmlns:xlink="http://www.w3.org/1999/xlink" width="800px" height="800px" viewBox="0,0,256,256"><g fill="#8887cf" fill-rule="nonzero" stroke="none" stroke-width="1" stroke-linecap="butt" stroke-linejoin="miter" stroke-miterlimit="10" stroke-dasharray="" stroke-dashoffset="0" font-family="none" font-weight="none" font-size="none" text-anchor="none" style="mix-blend-mode: normal"><g transform="translate(0.43399,-0.05339) scale(10.66667,10.66667)"><path d="M18.4,20.75h-0.23c-2.5912,-0.2819 -5.0807,-1.1654 -7.27,-2.58c-2.03382,-1.2953 -3.76062,-3.0187 -5.06,-5.05c-1.41784,-2.195 -2.30148,-4.69177 -2.58,-7.28999c-0.03184,-0.3099 -0.0004,-0.62305 0.09243,-0.92043c0.09282,-0.29738 0.24509,-0.57281 0.44757,-0.80957c0.19694,-0.23993 0.44002,-0.4379 0.71486,-0.58219c0.27483,-0.14428 0.57582,-0.23195 0.88514,-0.25781h2.6c0.56312,0.00057 1.10747,0.20247 1.53476,0.56924c0.42729,0.36677 0.70934,0.87424 0.79524,1.43076c0.095,0.71488 0.2728,1.41627 0.53,2.09c0.1564,0.42338 0.1887,0.88263 0.0931,1.32374c-0.0957,0.4411 -0.3153,0.84572 -0.6331,1.16626l-0.61,0.60999c0.9604,1.5162 2.2487,2.7977 3.77,3.75l0.61,-0.6c0.3205,-0.3178 0.7252,-0.5374 1.1663,-0.6331c0.4411,-0.0956 0.9003,-0.0633 1.3237,0.0931c0.6745,0.2548 1.3756,0.4326 2.09,0.53c0.566,0.0851 1.0815,0.3738 1.4498,0.812c0.3682,0.4383 0.5639,0.9958 0.5502,1.568v2.4c0,0.6242 -0.2473,1.223 -0.6877,1.6653c-0.4404,0.4423 -1.0381,0.6921 -1.6623,0.6947zM8,4.75001h-2.39c-0.11735,0.00776 -0.23191,0.03923 -0.33675,0.09251c-0.10485,0.05328 -0.1978,0.12727 -0.27325,0.21749c-0.07342,0.08451 -0.129,0.18301 -0.16337,0.28956c-0.03437,0.10655 -0.04683,0.21895 -0.03663,0.33044c0.24249,2.35678 1.03362,4.62399 2.31,6.61999c1.17664,1.8467 2.74332,3.4134 4.59,4.59c1.9973,1.2898 4.267,2.0978 6.63,2.36c0.1229,0.0069 0.2459,-0.0117 0.3612,-0.0547c0.1153,-0.0431 0.2205,-0.1096 0.3088,-0.1953c0.1592,-0.1632 0.2489,-0.3819 0.25,-0.61v-2.39c0.0045,-0.2104 -0.0683,-0.4152 -0.2047,-0.5756c-0.1364,-0.1603 -0.3269,-0.2651 -0.5353,-0.2944c-0.8261,-0.1111 -1.6376,-0.3123 -2.42,-0.6c-0.1541,-0.0576 -0.3214,-0.0704 -0.4825,-0.0367c-0.1611,0.0336 -0.3093,0.1122 -0.4275,0.2267l-1,1c-0.1171,0.1142 -0.268,0.1876 -0.4301,0.2092c-0.1622,0.0216 -0.3269,-0.0097 -0.4699,-0.0892c-2.1338,-1.2058 -3.90003,-2.9685 -5.11,-5.1c-0.08282,-0.142 -0.11598,-0.3076 -0.09425,-0.4706c0.02173,-0.1629 0.09711,-0.31402 0.21425,-0.42939l1,-1c0.11468,-0.11598 0.19357,-0.2625 0.22726,-0.42208c0.03369,-0.15958 0.02076,-0.32549 -0.03726,-0.47792c-0.28881,-0.78202 -0.49003,-1.59364 -0.6,-2.42c-0.02481,-0.21473 -0.12867,-0.41254 -0.29135,-0.55488c-0.16268,-0.14235 -0.37252,-0.21903 -0.58865,-0.21512z"></path></g></g></svg>