<svg width="50" height="50" viewBox="0 0 50 50" fill="none" xmlns="http://www.w3.org/2000/svg">
<path d="M43.1278 7.61337C43.1278 7.61337 47.0963 6.03524 46.7655 9.86784C46.6553 11.446 45.6633 16.9694 44.8916 22.9438L42.246 40.6414C42.246 40.6414 42.0256 43.234 40.0413 43.6849C38.057 44.1358 35.0808 42.1068 34.5295 41.6559C34.0886 41.3178 26.262 36.2451 23.5061 33.7653C22.7344 33.0889 21.8525 31.7362 23.6163 30.1581L35.191 18.8858C36.5138 17.5331 37.8366 14.3768 32.3248 18.2094L16.892 28.9182C16.892 28.9182 15.1283 30.0454 11.8213 29.0309L4.65602 26.7764C4.65602 26.7764 2.01038 25.0856 6.53 23.3946C17.5535 18.0966 31.1123 12.6859 43.1278 7.61337Z" fill="#8887CF"/>
</svg>
