<svg width="46" height="69" fill="none" xmlns="http://www.w3.org/2000/svg"><path d="M34.836 6.992c0 1.306-.46 3.122-2.301 3.122-2.222 0-2.222-2.5-2.222-3.026 0-.526 0-3.202 2.285-3.202 2.08 0 2.238 2.31 2.238 3.106ZM30.328 0h-1.492v9.636l-.031 1.434h1.444l.032-1.21c.196.325.462.602.778.812a3.14 3.14 0 0 0 1.777.51 3.406 3.406 0 0 0 2.81-1.37c.397-.526.762-1.37.762-2.931 0-1.752-.54-2.549-.937-3.01-.73-.829-1.73-1.02-2.54-1.02-1.809 0-2.396 1.004-2.602 1.37V0ZM38.995 7.31c0-.716 0-3.264 2.381-3.264 1.762 0 2.19 1.497 2.19 2.946 0 .574-.079 1.72-.65 2.5-.508.702-1.302.781-1.683.781-2.095.016-2.238-1.975-2.238-2.962Zm-1.444 6.866h1.476v-3.982c.429.7 1.286 1.194 2.444 1.194 1.905 0 3.635-1.306 3.635-4.3 0-2.995-1.635-4.157-3.349-4.157-.65 0-1.968.19-2.73 1.45l-.032-1.323h-1.508c.032.765.048.956.048 1.306v9.812h.016Z" fill="#1E1E1E"/><path fill-rule="evenodd" clip-rule="evenodd" d="M25.694 19.703a31.368 31.368 0 0 0-3.064-5.527 32.672 32.672 0 0 0-3.063 5.527 21.078 21.078 0 0 1 3.063 4.189 20.194 20.194 0 0 1 3.064-4.19ZM19.582 54.473A31.378 31.378 0 0 0 22.646 60c.54-.828 1.936-2.867 3.063-5.527a21.724 21.724 0 0 1-3.063-4.19 21.724 21.724 0 0 1-3.064 4.19Z" fill="#1E1E1E"/><path fill-rule="evenodd" clip-rule="evenodd" d="M19.582 19.703a33.43 33.43 0 0 0-4.761-4.158 31.942 31.942 0 0 0-.985 6.244 20.945 20.945 0 0 1 4.302 2.883c.27-1.71.756-3.38 1.444-4.97ZM25.694 54.473a32.555 32.555 0 0 0 4.762 4.157c.532-2.043.861-4.135.984-6.243a21.623 21.623 0 0 1-4.302-2.883 21.553 21.553 0 0 1-1.444 4.97ZM13.836 21.79a31.503 31.503 0 0 0-5.888-2.262 32.395 32.395 0 0 0 1.206 6.211c1.716.199 3.401.61 5.016 1.227a21.497 21.497 0 0 1-.334-5.177Z" fill="#1E1E1E"/><path fill-rule="evenodd" clip-rule="evenodd" d="M31.424 52.387a31.51 31.51 0 0 0 5.889 2.261 32.398 32.398 0 0 0-1.207-6.212 20.796 20.796 0 0 1-5.016-1.242c.335 1.71.447 3.455.334 5.193ZM11.233 30.486a21.295 21.295 0 0 1-2.08-4.747 31.773 31.773 0 0 0-6.3-.111 33.615 33.615 0 0 0 3.237 5.415 20.545 20.545 0 0 1 5.143-.557ZM34.027 43.69a20.584 20.584 0 0 1 2.08 4.746c2.091.246 4.202.284 6.3.112-.91-1.91-2-3.728-3.253-5.431-1.678.409-3.4.601-5.127.573ZM6.09 31.043a33.057 33.057 0 0 0-5.952 2.055 32.635 32.635 0 0 0 4.905 3.982c1.443-.956 3-1.727 4.635-2.294a21.42 21.42 0 0 1-3.588-3.743ZM40.233 37.08c-1.443.956-3 1.726-4.635 2.293a20.744 20.744 0 0 1 3.572 3.743 32.137 32.137 0 0 0 5.952-2.054 31.425 31.425 0 0 0-4.889-3.982ZM9.678 39.373a20.643 20.643 0 0 1-4.635-2.293 32.63 32.63 0 0 0-4.905 3.982 31.812 31.812 0 0 0 5.952 2.054 21.986 21.986 0 0 1 3.588-3.743ZM35.598 34.786c1.633.57 3.19 1.34 4.635 2.294a32.64 32.64 0 0 0 4.905-3.982 31.807 31.807 0 0 0-5.952-2.055 21.421 21.421 0 0 1-3.588 3.743ZM6.09 43.133a31.28 31.28 0 0 0-3.238 5.43c2.1.164 4.21.127 6.302-.11a21.294 21.294 0 0 1 2.08-4.747c-1.731.01-3.457-.182-5.144-.573ZM39.17 31.043a32.799 32.799 0 0 0 3.254-5.431c-2.1-.163-4.21-.126-6.302.112a21.29 21.29 0 0 1-2.08 4.746 21.163 21.163 0 0 1 5.128.573Z" fill="#1E1E1E"/><path fill-rule="evenodd" clip-rule="evenodd" d="M14.17 47.194c-1.617.614-3.3 1.03-5.016 1.242a32.394 32.394 0 0 0-1.206 6.212 31.51 31.51 0 0 0 5.888-2.261 21.68 21.68 0 0 1 .334-5.193ZM31.09 26.966a20.732 20.732 0 0 1 5.016-1.227 32.398 32.398 0 0 0 1.207-6.211 31.502 31.502 0 0 0-5.89 2.261 20.041 20.041 0 0 1-.332 5.177ZM13.836 52.387c.121 2.108.45 4.2.985 6.243a32.387 32.387 0 0 0 4.761-4.157 20.717 20.717 0 0 1-1.444-4.985 21.049 21.049 0 0 1-4.302 2.899Z" fill="#1E1E1E"/><path fill-rule="evenodd" clip-rule="evenodd" d="M31.424 21.79a31.95 31.95 0 0 0-.984-6.245 32.388 32.388 0 0 0-4.762 4.158 21.556 21.556 0 0 1 1.444 4.97 22.078 22.078 0 0 1 4.302-2.884Z" fill="#1E1E1E"/><path fill-rule="evenodd" clip-rule="evenodd" d="M21.059 28.176a14.51 14.51 0 0 1 1.571-4.3 21.075 21.075 0 0 0-3.063-4.19 20.8 20.8 0 0 0-1.445 4.97 14.67 14.67 0 0 1 2.937 3.52ZM24.202 46a14.677 14.677 0 0 1-1.572 4.3 20.473 20.473 0 0 0 3.064 4.189 21.467 21.467 0 0 0 1.444-4.985 14.286 14.286 0 0 1-2.936-3.505ZM14.17 26.966a14.554 14.554 0 0 1 3.952 2.277 14.716 14.716 0 0 1 0-4.57 21.171 21.171 0 0 0-4.301-2.884c-.085 1.734.032 3.47.349 5.177Z" fill="#1E1E1E" fill-opacity=".75"/><path fill-rule="evenodd" clip-rule="evenodd" d="M31.09 47.194a14.554 14.554 0 0 1-3.952-2.278c.241 1.515.236 3.059-.016 4.572a21.175 21.175 0 0 0 4.302 2.883 20.081 20.081 0 0 0-.334-5.177ZM15.725 31.266a14.603 14.603 0 0 1-1.555-4.3 20.733 20.733 0 0 0-5.016-1.227 21.29 21.29 0 0 0 2.08 4.747c1.529.017 3.045.28 4.491.78Z" fill="#1E1E1E" fill-opacity=".75"/><path fill-rule="evenodd" clip-rule="evenodd" d="M29.535 42.91a14.6 14.6 0 0 1 1.555 4.3c1.617.614 3.3 1.03 5.016 1.242a21.295 21.295 0 0 0-2.079-4.746 15.431 15.431 0 0 1-4.492-.797ZM9.678 34.786a14.466 14.466 0 0 1 4.492-.796 14.175 14.175 0 0 1-2.92-3.504 21.311 21.311 0 0 0-5.144.557 20.744 20.744 0 0 0 3.572 3.743ZM35.598 39.373c-1.446.502-2.962.77-4.492.797a14.178 14.178 0 0 1 2.921 3.504c1.731.028 3.46-.165 5.143-.573a21.768 21.768 0 0 0-3.572-3.727ZM13.614 37.08a14.207 14.207 0 0 1-3.936-2.294 20.647 20.647 0 0 0-4.635 2.294c1.443.956 3 1.727 4.635 2.294a14.61 14.61 0 0 1 3.936-2.294Z" fill="#1E1E1E" fill-opacity=".75"/><path fill-rule="evenodd" clip-rule="evenodd" d="M31.646 37.08a14.53 14.53 0 0 1 3.952 2.294c1.633-.57 3.19-1.341 4.635-2.294-1.443-.956-3-1.727-4.635-2.294a13.91 13.91 0 0 1-3.952 2.294ZM11.233 43.69a14.535 14.535 0 0 1 2.92-3.504 14.463 14.463 0 0 1-4.491-.797 20.741 20.741 0 0 0-3.572 3.743c1.686.394 3.413.582 5.143.558ZM34.027 30.486a14.536 14.536 0 0 1-2.92 3.504c1.53.026 3.045.295 4.491.796a20.744 20.744 0 0 0 3.572-3.743 20.46 20.46 0 0 0-5.143-.557Z" fill="#1E1E1E" fill-opacity=".75"/><path fill-rule="evenodd" clip-rule="evenodd" d="M15.725 42.91c-1.446.499-2.962.762-4.492.78a21.29 21.29 0 0 0-2.08 4.746 20.803 20.803 0 0 0 5.017-1.242 14.67 14.67 0 0 1 1.555-4.285ZM29.535 31.266c1.446-.5 2.963-.763 4.492-.78a20.582 20.582 0 0 0 2.08-4.747c-1.717.198-3.402.61-5.017 1.227a14.169 14.169 0 0 1-1.555 4.3ZM21.059 46a14.288 14.288 0 0 1-2.937 3.504c.273 1.715.758 3.39 1.445 4.985A21.08 21.08 0 0 0 22.63 50.3 15.14 15.14 0 0 1 21.06 46Z" fill="#1E1E1E" fill-opacity=".75"/><path fill-rule="evenodd" clip-rule="evenodd" d="M18.122 44.932a14.324 14.324 0 0 1-3.952 2.278 20.766 20.766 0 0 0-.334 5.177 21.623 21.623 0 0 0 4.302-2.883 14.239 14.239 0 0 1-.016-4.572ZM24.202 28.176a14.64 14.64 0 0 1 2.936-3.504 20.588 20.588 0 0 0-1.444-4.97 21.724 21.724 0 0 0-3.064 4.19 14.252 14.252 0 0 1 1.572 4.284Z" fill="#1E1E1E" fill-opacity=".75"/><path fill-rule="evenodd" clip-rule="evenodd" d="M27.138 29.244a14.096 14.096 0 0 1 3.952-2.278c.328-1.705.44-3.444.334-5.177a21.614 21.614 0 0 0-4.302 2.883 14.24 14.24 0 0 1 .016 4.572Z" fill="#1E1E1E" fill-opacity=".75"/><path fill-rule="evenodd" clip-rule="evenodd" d="M21.075 32.795a12.033 12.033 0 0 0-2.953-3.536 12.672 12.672 0 0 0 1.572 4.333 12.354 12.354 0 0 0-3.969-2.31 12.519 12.519 0 0 0 2.953 3.536 12.204 12.204 0 0 0-4.524-.812 12.23 12.23 0 0 0 3.984 2.294 12.166 12.166 0 0 0-4.524.796c1.447.54 2.98.81 4.524.796a12.232 12.232 0 0 0-3.984 2.294c1.546.018 3.08-.258 4.524-.812a12.301 12.301 0 0 0-2.953 3.536 12.481 12.481 0 0 0 3.969-2.31 12.349 12.349 0 0 0-1.572 4.332 12.722 12.722 0 0 0 2.953-3.536 12.54 12.54 0 0 0 0 4.62 12.583 12.583 0 0 0 1.571-4.333c.25 1.53.783 3 1.571 4.333a12.54 12.54 0 0 0 0-4.62 12.498 12.498 0 0 0 2.953 3.536 12.39 12.39 0 0 0-1.588-4.332 12.423 12.423 0 0 0 3.985 2.31 12.302 12.302 0 0 0-2.953-3.536c1.444.554 2.979.83 4.524.812a12.554 12.554 0 0 0-3.984-2.31c1.544.025 3.08-.246 4.524-.796a12.557 12.557 0 0 0-4.524-.796 12.23 12.23 0 0 0 3.984-2.294 12.205 12.205 0 0 0-4.524.812 12.368 12.368 0 0 0 2.968-3.536 12.419 12.419 0 0 0-3.984 2.31 12.392 12.392 0 0 0 1.588-4.332 12.723 12.723 0 0 0-2.953 3.535 12.54 12.54 0 0 0 0-4.619 12.461 12.461 0 0 0-1.571 4.333c-.25-1.53-.783-3-1.572-4.333a12.28 12.28 0 0 0-.015 4.635Z" fill="#1E1E1E"/><path fill-rule="evenodd" clip-rule="evenodd" d="M21.075 32.795a12.545 12.545 0 0 1 0-4.619 14.285 14.285 0 0 0-2.937-3.504 14.25 14.25 0 0 0 0 4.571c1.185.996 2.18 2.2 2.936 3.552ZM24.186 41.38a12.545 12.545 0 0 1 0 4.62 14.641 14.641 0 0 0 2.936 3.504c.244-1.514.25-3.056.016-4.572a12.57 12.57 0 0 1-2.952-3.552ZM18.122 29.243a14.32 14.32 0 0 0-3.952-2.277 14.169 14.169 0 0 0 1.555 4.3 12.19 12.19 0 0 1 3.969 2.31 12.555 12.555 0 0 1-1.572-4.333ZM27.138 44.932c1.186.97 2.52 1.739 3.952 2.278a14.167 14.167 0 0 0-1.555-4.3 12.72 12.72 0 0 1-3.984-2.31 11.974 11.974 0 0 1 1.587 4.332Z" fill="#1E1E1E" fill-opacity=".5"/><path fill-rule="evenodd" clip-rule="evenodd" d="M18.694 34.802a12.305 12.305 0 0 1-2.953-3.536 14.252 14.252 0 0 0-4.492-.78 14.536 14.536 0 0 0 2.92 3.504 12.26 12.26 0 0 1 4.525.812ZM26.582 39.373a12.304 12.304 0 0 1 2.953 3.537c1.446.499 2.963.763 4.492.78a14.536 14.536 0 0 0-2.92-3.504 12.203 12.203 0 0 1-4.524-.813ZM18.138 36.3a12.23 12.23 0 0 1-3.984-2.294c-1.53.026-3.046.295-4.492.796a14.43 14.43 0 0 0 3.936 2.294 12.103 12.103 0 0 1 4.54-.796Z" fill="#1E1E1E" fill-opacity=".5"/><path fill-rule="evenodd" clip-rule="evenodd" d="M27.122 37.876c1.459.517 2.81 1.3 3.984 2.31a14.463 14.463 0 0 0 4.492-.797 14.296 14.296 0 0 0-3.952-2.293 12.16 12.16 0 0 1-4.524.78ZM13.614 37.08a14.206 14.206 0 0 0-3.936 2.293c1.446.502 2.962.77 4.492.797a12.231 12.231 0 0 1 3.984-2.294 11.99 11.99 0 0 1-4.54-.796ZM31.646 37.08a14.53 14.53 0 0 0 3.952-2.294 14.469 14.469 0 0 0-4.492-.796 12.229 12.229 0 0 1-3.984 2.294 12.5 12.5 0 0 1 4.524.796ZM18.694 39.373c-1.444.555-2.979.831-4.524.813a14.18 14.18 0 0 0-2.92 3.504 14.714 14.714 0 0 0 4.491-.78 11.812 11.812 0 0 1 2.953-3.536Z" fill="#1E1E1E" fill-opacity=".5"/><path fill-rule="evenodd" clip-rule="evenodd" d="M26.582 34.802a12.205 12.205 0 0 1 4.524-.812 14.178 14.178 0 0 0 2.921-3.504 14.717 14.717 0 0 0-4.492.78 12.305 12.305 0 0 1-2.953 3.536ZM21.059 46a14.677 14.677 0 0 0 1.571 4.3 14.967 14.967 0 0 0 1.572-4.3 12.58 12.58 0 0 1-1.572-4.333 12.264 12.264 0 0 1-1.571 4.332ZM21.075 41.38a12.242 12.242 0 0 1-2.953 3.536 14.717 14.717 0 0 0 0 4.572 14.64 14.64 0 0 0 2.937-3.505 12.819 12.819 0 0 1 .016-4.603Z" fill="#1E1E1E" fill-opacity=".5"/><path fill-rule="evenodd" clip-rule="evenodd" d="M15.725 42.91a14.6 14.6 0 0 0-1.555 4.3 14.555 14.555 0 0 0 3.952-2.278 12.672 12.672 0 0 1 1.572-4.332 12.483 12.483 0 0 1-3.969 2.31ZM24.202 28.176a14.51 14.51 0 0 0-1.572-4.3 14.793 14.793 0 0 0-1.571 4.3 12.46 12.46 0 0 1 1.571 4.332c.25-1.53.783-2.999 1.572-4.332Z" fill="#1E1E1E" fill-opacity=".5"/><path fill-rule="evenodd" clip-rule="evenodd" d="M24.186 32.795a12.279 12.279 0 0 1 2.952-3.536c.241-1.514.236-3.058-.016-4.571a14.64 14.64 0 0 0-2.936 3.504 11.81 11.81 0 0 1 0 4.603Z" fill="#1E1E1E" fill-opacity=".5"/><path fill-rule="evenodd" clip-rule="evenodd" d="M29.535 31.266a14.603 14.603 0 0 0 1.555-4.3 14.554 14.554 0 0 0-3.952 2.277 12.392 12.392 0 0 1-1.587 4.333 12.72 12.72 0 0 1 3.984-2.31Z" fill="#1E1E1E" fill-opacity=".5"/></svg>