<svg width="102" height="29" fill="none" xmlns="http://www.w3.org/2000/svg"><path d="M7.85 23.393h12.48c.1 0 .1.101 0 .101-1.51.61-3.523 2.54-3.523 2.54-1.409 1.218-2.516 2.03-4.83 2.03H.1c-.101 0-.101-.1 0-.1 1.308-.712 3.22-2.642 3.22-2.642.805-.812 2.416-1.93 4.529-1.93ZM89.47 23.393h12.48c.1 0 .1.101 0 .101-1.409.61-3.422 2.54-3.422 2.54-1.41 1.218-2.516 2.03-4.83 2.03H81.72c-.1 0-.1-.1 0-.1 1.308-.712 3.22-2.642 3.22-2.642.906-.812 2.516-1.93 4.53-1.93ZM28.28 23.393h12.48c.1 0 .1.101 0 .101-1.41.61-3.422 2.54-3.422 2.54-1.409 1.218-2.516 2.03-4.83 2.03H20.63c-.1 0-.1-.1 0-.1 1.309-.712 3.221-2.642 3.221-2.642.704-.812 2.315-1.93 4.428-1.93ZM48.61 23.393h12.48c.1 0 .1.101 0 .101-1.41.61-3.423 2.54-3.423 2.54-1.409 1.218-2.516 2.03-4.83 2.03H40.96c-.1 0-.1-.1 0-.1 1.308-.712 3.22-2.642 3.22-2.642.806-.812 2.416-1.93 4.429-1.93ZM69.04 23.393h12.48c.1 0 .1.101 0 .101-1.41.61-3.422 2.54-3.422 2.54-1.41 1.218-2.516 2.03-4.831 2.03H61.391c-.1 0-.1-.1 0-.1 1.309-.712 3.22-2.642 3.22-2.642.806-.812 2.416-1.93 4.429-1.93Z" fill="#1E1E1E" fill-opacity=".6"/><path d="M72.462.64c-7.85 0-12.983 3.759-12.983 9.548 0 5.282 4.73 8.837 11.876 8.837 2.314 0 4.327-.305 6.743-.914v-4.47c-1.711 1.83-3.724 2.54-5.938 2.54-4.227 0-7.045-2.64-7.045-6.5 0-3.758 3.02-6.5 7.145-6.5 2.315 0 4.127.812 5.536 2.234V1.149C76.286.742 74.374.64 72.462.64ZM13.587 3.688c2.918 0 6.34.508 7.85 1.727V1.149H.704v4.266c1.51-1.118 4.53-1.626 7.85-1.626v11.58c0 1.726-.1 2.133-.905 3.047h6.642c-.704-.915-.906-1.422-.906-3.048V3.688h.202ZM35.023 7.954c-1.208.406-3.321.508-4.428.508h-1.71v-4.57h2.314c2.113 0 5.736.405 7.045 1.624V1.15H23.248c.705.914.805 1.422.805 3.047v11.172c0 1.727-.1 2.235-.805 3.048H39.25V14.25c-2.214 1.625-6.34 1.625-8.051 1.524h-2.315V11h1.711c1.208 0 3.22.102 4.428.508V7.954ZM57.265 1.758C54.95 1.048 51.73.54 49.415.54c-4.328 0-8.555 1.32-8.555 5.688 0 7.516 13.084 3.555 13.084 8.126 0 1.523-2.315 2.133-4.127 2.133-3.32 0-5.736-.508-8.655-2.235v3.758c2.214.711 5.133 1.118 8.454 1.118 4.529 0 8.756-1.22 8.756-5.587 0-7.922-13.083-4.367-13.083-8.227 0-1.523 2.113-2.133 3.925-2.133 3.12 0 6.44.914 8.252 2.64V1.759h-.201ZM84.337 9.884c0-3.657 2.315-6.602 5.838-6.602 3.522 0 5.837 2.945 5.837 6.602.1 3.555-2.214 6.5-5.737 6.5-3.623 0-5.938-2.945-5.938-6.5Zm17.009-.203c0-5.485-4.227-9.142-10.568-9.142-6.843.102-11.573 3.962-11.573 9.548 0 5.383 4.327 9.04 10.668 9.04 6.743 0 11.473-3.86 11.473-9.446Z" fill="#1E1E1E"/></svg>