<svg width="114" height="31" fill="none" xmlns="http://www.w3.org/2000/svg"><path fill-rule="evenodd" clip-rule="evenodd" d="M6.967 3.46c.985-1.158 2.102-2.228 3.436-2.963.691.13 1.357.402 2.044.561.194.023.39.197.356.408-.11.662-.242 1.321-.34 1.987 0 .156-.157.221-.26.302-.584-.209-1.185-.362-1.78-.532-.168-.04-.345-.1-.517-.056-.186.06-.347.179-.507.288-1.265.876-2.278 2.064-3.21 3.285-.355.489-.696.988-1.029 1.494-.247.369-.44.78-.751 1.104-.07-.124-.145-.254-.149-.402-.03-.467-.095-.93-.134-1.396.109-.259.281-.484.427-.723A28.309 28.309 0 0 1 6.967 3.46Zm7.382-1.737c1.055-.105 2.109-.236 3.171-.24.627-.079 1.256.004 1.884.008 1.407.084 2.837.289 4.13.883.336.708.585 1.456.915 2.168-.056.122-.086.277-.224.332-.583.322-1.163.65-1.75.967-.122.026-.35.043-.403-.098-.165-.619-.468-1.183-.702-1.775-.07-.163-.148-.346-.326-.41-.406-.178-.84-.28-1.272-.375-.962-.183-1.94-.304-2.921-.275a21.405 21.405 0 0 0-3.86.285c-.002-.102-.013-.218.065-.299.248-.303.554-.55.824-.833.142-.13.263-.315.469-.338Zm84.589.867c1.614-.007 3.228.001 4.843-.005.051.737.011 1.48.025 2.219l-.001 8.003c.001.227-.016.456.029.68 1.379-1.692 2.687-3.443 4.062-5.136.604-.052 1.216-.007 1.823-.023 1.19.003 2.381-.004 3.57.004-1.601 1.939-3.249 3.838-4.863 5.768-.092.108-.189.213-.282.32 1.792 2.868 3.644 5.7 5.434 8.57-1.799 0-3.6.004-5.399-.002-.95-1.736-1.926-3.459-2.878-5.194-.448.462-.86.958-1.293 1.433-.09.115-.231.217-.221.38-.003 1.128-.002 2.257.001 3.386a817.088 817.088 0 0 0-4.85 0c.003-6.801 0-13.602 0-20.403ZM15.575 5.298c.858-.12 1.726-.125 2.59-.12.462 0 .918.097 1.38.078.024.626-.037 1.253-.018 1.88.036.183-.125.304-.266.378-1.148.535-2.313 1.155-3.139 2.155-.374.438-.634.965-.808 1.518-.121-.583.055-1.175-.017-1.762-.02-.176-.202-.257-.358-.27-.768-.087-1.541-.108-2.309-.19-.059.59-.018 1.184-.057 1.773a4.34 4.34 0 0 0 .034.888c.144-.002.288-.002.432-.002l-.15.099c-.195.01-.39-.058-.473-.25-.003-.423-.003-.845.022-1.267.054-.517-.044-1.054.127-1.556.323-1.055 1.087-1.898 1.932-2.562.337-.295.708-.543 1.078-.79ZM8.465 7.51c.502-.712 1.084-1.36 1.657-2.013.516.404 1.006.84 1.517 1.25.152.116.081.33.047.488-.216.773-.324 1.57-.376 2.37-.058 1.036.172 2.12.783 2.966-.357-.148-.594-.474-.896-.702-.225-.17-.456-.456-.77-.366-.203.088-.331.287-.48.444-.397.455-.83.879-1.22 1.34.376.429.864.732 1.279 1.12.214.187.415.399.67.53.273-.15.454-.42.67-.637.38-.393.707-.843 1.146-1.172-.215.348-.532.615-.8.92-.28.295-.544.606-.828.897-.088.11-.235.122-.365.107-.524-.426-1.032-.873-1.551-1.306-.703-.558-1.041-1.451-1.2-2.314a8.91 8.91 0 0 1-.038-2.69c.139-.473.484-.835.754-1.232ZM23.08 6.046c.057-.139.233-.098.35-.1.489.048.978.112 1.462.187.825.76 1.58 1.599 2.305 2.46 1.078 1.287 2.066 2.68 2.708 4.248.134.357.277.717.355 1.092-.33.618-.667 1.232-1 1.85-.06.107-.124.244-.262.259-.17.057-.326-.051-.477-.11-.532-.248-1.083-.45-1.617-.694-.128-.049-.133-.206-.18-.316.271-.361.438-.784.66-1.176.132-.246.284-.48.389-.74.08-.178 0-.37-.053-.54-.52-1.46-1.42-2.737-2.372-3.935-.7-.88-1.499-1.67-2.268-2.485ZM39.77 9.554c.936-.82 2.09-1.442 3.339-1.548 1.158-.106 2.366.158 3.333.827.83.56 1.477 1.37 1.902 2.278.616 1.292.831 2.743.851 4.165.01 1.133-.105 2.281-.452 3.364-.345 1.062-.874 2.072-1.624 2.897-.712.762-1.616 1.354-2.622 1.621-.999.269-2.097.25-3.046-.186-.58-.246-1.069-.656-1.531-1.077.073.647.101 1.3.161 1.95.032.232.018.467.02.701 0 1.195-.002 2.39.002 3.585-1.666.006-3.33.001-4.996.001-.003-6.599.002-13.199-.003-19.799 1.357-.004 2.713-.009 4.069.003.12.44.208.888.35 1.32.101.054.172-.05.247-.102Zm.646 3.255c-.115.144-.331.256-.316.466.003 1.75-.004 3.503.004 5.254.512.515 1.25.73 1.958.703.79-.065 1.447-.694 1.71-1.427.356-1 .322-2.085.286-3.131-.066-.692-.165-1.44-.628-1.988-.33-.406-.856-.615-1.37-.591-.62-.025-1.223.26-1.644.714Zm13.69-4.472c1.42-.357 2.918-.476 4.365-.208 1.248.237 2.449.886 3.225 1.92.657.873.968 1.956 1.117 3.03.095.593.08 1.196.123 1.795-.008 2.705.017 5.41-.012 8.114-1.355.006-2.711.001-4.066.001-.132-.48-.2-.982-.388-1.444-.9.76-1.896 1.494-3.078 1.701-.987.169-2.046.117-2.957-.34a4.018 4.018 0 0 1-1.937-1.968 5.167 5.167 0 0 1-.303-3.314c.244-.994.902-1.85 1.739-2.41 1.248-.845 2.738-1.2 4.193-1.475.594-.1 1.19-.192 1.79-.243a1.492 1.492 0 0 0-.841-1.296c-.609-.285-1.311-.264-1.958-.15-1.015.196-1.943.68-2.855 1.154-.603-1.082-1.156-2.193-1.755-3.279a13.788 13.788 0 0 1 3.598-1.588Zm1.925 8.624c-.483.203-.93.556-1.14 1.053-.167.412-.077.96.306 1.22.388.256.874.244 1.317.199.59-.09 1.022-.551 1.41-.971.045-.653.008-1.313.017-1.968-.651.082-1.3.22-1.91.467ZM2.574 8.411c.116-.104.28-.044.42-.049.449.55.935 1.069 1.391 1.613.104.093.049.236.05.356-.544.336-1.037.75-1.573 1.102-.122.092-.279.176-.322.335-.075.294-.078.6-.09.902-.07 1.71.298 3.403.747 5.043.228.742.436 1.498.763 2.205-.099.052-.215.087-.315.015-.396-.214-.755-.493-1.142-.722-.075-.059-.184-.094-.223-.19-.63-1.763-1.179-3.57-1.453-5.43-.116-.856-.24-1.72-.188-2.587.047-.397.097-.795.143-1.193 0-.133.123-.196.214-.266.53-.372 1.056-.75 1.578-1.133Zm60.282-.07c1.118-.028 2.238-.004 3.358-.013.549.01 1.099-.017 1.647.016.456 1.542.946 3.075 1.416 4.614.325 1.028.643 2.059.877 3.113.097.457.212.908.312 1.363.062.25.098.51.222.74.081-.175.118-.366.156-.554.318-1.505.629-3.012 1.03-4.496.409-1.596.826-3.189 1.229-4.785 1.081-.024 2.164-.004 3.246-.01.504.007 1.009-.018 1.513.014-1.495 4.48-3.019 8.95-4.527 13.426a20.574 20.574 0 0 1-1.543 3.63c-.607 1.096-1.497 2.069-2.651 2.574a6.123 6.123 0 0 1-2.336.498 4.554 4.554 0 0 1-.986.001 5.327 5.327 0 0 1-1.695-.288c.308-1.266.58-2.54.88-3.809.715.256 1.526.255 2.218-.072.668-.357.993-1.108 1.128-1.826-.161-.515-.389-1.008-.575-1.514a12872.43 12872.43 0 0 1-4.919-12.622Zm20.827-.007c1.664-.012 3.329-.002 4.993-.006-.002 2.85 0 5.699-.001 8.548.002.485.032.982.203 1.44.14.385.506.652.902.714.51.061 1.062.008 1.499-.289.35-.243.63-.572.874-.92.056-.079.03-.184.04-.274-.004-3.072-.003-6.145 0-9.216 1.664-.002 3.328-.003 4.992 0V22.99c-1.356.002-2.71 0-4.066 0-.12-.66-.216-1.326-.37-1.979-.38.352-.703.767-1.111 1.088-.513.414-1.073.793-1.707.987-.819.268-1.698.29-2.548.2-1.058-.137-2.063-.718-2.666-1.617-.748-1.107-.972-2.477-1.031-3.791-.006-3.18-.001-6.362-.003-9.543ZM18.188 9.356c.753-.476 1.678-.562 2.545-.492a9.878 9.878 0 0 1 2.104.475c.45.212.717.654 1.044 1.01.624.698 1.156 1.472 1.688 2.242-.496.38-.984.77-1.479 1.151-.109.096-.262.026-.378-.022-.704-.355-1.423-.693-2.184-.905-.978-.306-2.056-.345-3.023.022.324-.483.91-.69 1.272-1.134.083-.258-.1-.49-.236-.69-.384-.518-.707-1.08-1.091-1.602-.548.348-1.034.786-1.56 1.164-.17.126-.347.25-.466.428.155.346.394.643.603.958.252.354.47.734.738 1.077.146-.012.293-.022.437-.04-.159.11-.438.216-.574.023-.41-.607-.803-1.226-1.223-1.828-.107-.117-.059-.28-.056-.422.61-.476 1.223-.946 1.839-1.415ZM4.479 13.128c.633-.155 1.272-.268 1.907-.415.16-.055.246.12.341.216.607.798 1.27 1.565 2.066 2.174.596.423 1.274.752 2 .853.31.035.626-.001.938.033-.745.095-1.493.193-2.214.41a.374.374 0 0 0-.26.445c.113.755.22 1.511.36 2.262.527-.038 1.028-.22 1.548-.303.321-.068.666-.091.956-.261-.064-.838-.276-1.66-.318-2.498a.406.406 0 0 1 .093.23c.106.701.2 1.404.31 2.104.046.174-.048.402-.233.437-.62.132-1.243.259-1.864.389-.78.204-1.6-.025-2.312-.357-.892-.443-1.663-1.095-2.372-1.79a29.533 29.533 0 0 1-.584-2.086c-.153-.608-.204-1.236-.362-1.843Zm14.663.472c.092-.08.2-.2.332-.134.64.184 1.293.327 1.936.502.535.112.993.447 1.386.818.82.792 1.331 1.85 1.724 2.913 0 .382-.084.756-.146 1.131-.179 1.027-.406 2.048-.748 3.033-.567-.163-1.145-.284-1.714-.437-.276-.094-.247-.444-.308-.678-.285-1.205-.64-2.454-1.458-3.41a4.353 4.353 0 0 0-1.031-.901c.538-.032 1.026.248 1.553.283.191.024.345-.128.394-.303.19-.551.341-1.116.53-1.668.05-.162.118-.328.095-.501-.31-.154-.656-.205-.988-.284-.496-.101-.978-.254-1.47-.368-.223.644-.402 1.302-.62 1.947-.07.19-.077.393-.03.59a1.597 1.597 0 0 0-.061.018.271.271 0 0 1-.082-.317c.242-.744.436-1.502.706-2.234Zm7.947 2.232c.238-.01.351.23.458.406.21.373.454.726.654 1.104-.079 1.134-.261 2.259-.465 3.376-.398 1.973-.97 3.965-2.125 5.631-.064.126-.216.114-.332.145-.64.11-1.28.223-1.92.338-.179.049-.359-.118-.391-.29-.183-.645-.36-1.292-.544-1.937-.05-.13.06-.245.138-.333.596-.057 1.18-.2 1.774-.27.215-.033.479-.044.596-.264.901-1.401 1.39-3.03 1.721-4.655.2-1.074.396-2.156.436-3.25Zm51.528 1.431c.547-.063 1.116-.029 1.627.192.68.287 1.216.874 1.502 1.555.246.607.289 1.287.18 1.93a3.035 3.035 0 0 1-1.117 1.855c-.52.396-1.183.567-1.827.533a2.658 2.658 0 0 1-1.975-.847c-1.097-1.144-1.115-3.155-.055-4.328a2.717 2.717 0 0 1 1.665-.89Zm-59.869.192c.165-.069.403-.039.478.147.298.673.605 1.341.9 2.015.321.934.155 1.965-.172 2.873a11.58 11.58 0 0 1-.816 1.699c-.37.29-.797.49-1.2.725-.825.476-1.705.84-2.577 1.216a37.21 37.21 0 0 1-.65-1.418c-.061-.154-.218-.328-.09-.491.358-.483.76-.933 1.071-1.448.35-.567.697-1.148.871-1.798a4.11 4.11 0 0 0 .121-1.944c.017-.019.05-.056.067-.073.172.503.387.99.613 1.472.075.16.196.364.403.334.274-.055.517-.208.776-.306.49-.195.984-.373 1.475-.563-.269-.827-.708-1.581-1.015-2.393-.614.167-1.193.436-1.786.661a1.9 1.9 0 0 0-.683.427c.05-.11.056-.268.184-.32.671-.283 1.361-.523 2.03-.815Zm-4.93.996.074.021c.619.316 1.194.716 1.81 1.036.184.083.285.337.167.513-.28.557-.563 1.114-.845 1.67-.366.821-1.145 1.358-1.934 1.712a9.538 9.538 0 0 1-2.406.621 2.427 2.427 0 0 1-.532-.151 38.263 38.263 0 0 1-2.112-.945c-.406-.195-.774-.46-1.175-.662.267-.54.532-1.08.81-1.613.06-.174.256-.215.417-.203a10.86 10.86 0 0 0 2.834-.244c.865-.226 1.689-.669 2.278-1.36-.144.576-.528 1.046-.727 1.598-.079.203.076.387.243.479.628.372 1.276.713 1.892 1.106.372-.569.615-1.209.951-1.799.092-.17.195-.342.231-.536-.271-.208-.59-.338-.873-.528-.366-.243-.787-.4-1.102-.715ZM2.261 20.507c.694-.06 1.393-.066 2.087-.115.172-.025.258.159.37.256-.2.546-.105 1.134-.176 1.7-.01.215-.075.47.079.652.254.318.567.582.878.842 1.522 1.234 3.326 2.037 5.136 2.733.38.156.797.232 1.134.478-.098.085-.2.172-.326.21l-1.253.422a.271.271 0 0 1-.227-.01c-1.658-.555-3.288-1.216-4.815-2.075-1.197-.669-2.317-1.496-3.234-2.528.03-.733.087-1.464.11-2.197-.015-.165.1-.3.237-.368Zm18.135 5.696c.56-.358 1.152-.662 1.68-1.07.089.118.104.271.043.406-.178.47-.316.958-.526 1.415-.719.508-1.484.95-2.246 1.385-1.218.671-2.477 1.277-3.802 1.694-.855.251-1.74.462-2.634.466-.507-.426-.979-.896-1.486-1.325-.169-.124-.353-.325-.245-.546.357-.533.752-1.038 1.103-1.575.096-.19.29-.33.508-.261.356.464.833.804 1.251 1.204.126.114.245.24.395.32.232.05.47.003.7-.028.557-.102 1.113-.217 1.647-.406 1.258-.429 2.46-1.012 3.612-1.68Z" fill="#1E1E1E"/><path fill-rule="evenodd" clip-rule="evenodd" d="M12.991 3.193a21.405 21.405 0 0 1 3.86-.285c.98-.03 1.959.092 2.921.275.432.094.866.196 1.273.375.177.064.256.247.325.41.234.591.537 1.156.702 1.775-.374-.07-.727-.225-1.103-.29-.472-.08-.943-.206-1.424-.198-.462.02-.918-.077-1.38-.077-.864-.005-1.732 0-2.59.12-.499-.048-.99.096-1.487.114-.148.005-.24-.136-.288-.262-.271-.651-.53-1.308-.809-1.957Zm-3.085-.026c.172-.044.349.017.517.056.595.17 1.196.323 1.78.532a8.801 8.801 0 0 0-2.08 1.742c-.574.654-1.156 1.302-1.659 2.014-.27.397-.615.76-.753 1.232l-.062-.088c-.228.377-.47.747-.692 1.128-.07.13-.225.231-.374.176-.725-.205-1.446-.426-2.174-.62.311-.324.504-.736.751-1.105.333-.506.674-1.005 1.03-1.494.931-1.22 1.944-2.409 3.209-3.285.16-.11.32-.228.507-.288ZM21.998 8.03c.348-.669.719-1.325 1.082-1.985.77.815 1.568 1.605 2.268 2.485.952 1.198 1.852 2.475 2.372 3.935.054.17.134.362.053.54-.105.26-.257.494-.388.74-.223.392-.39.815-.661 1.176a8.891 8.891 0 0 0-1.155-2.331c-.532-.77-1.064-1.544-1.688-2.243-.327-.355-.594-.798-1.044-1.009a11 11 0 0 0 .17.017c-.292-.323-.604-.624-.907-.935-.103-.097-.182-.252-.102-.39Zm-9.368.934c.768.082 1.541.103 2.309.19.156.013.339.094.358.27.072.587-.104 1.178.017 1.762-.005.27-.016.7-.374.705-.684-.056-1.37-.1-2.052-.17l.151-.098c-.144 0-.288 0-.432.002a4.34 4.34 0 0 1-.034-.888c.039-.59-.002-1.184.057-1.773Zm5.82.445c.384.522.707 1.085 1.091 1.604.136.2.32.431.236.688-.363.446-.948.652-1.272 1.135-.074.09-.193.133-.303.16-.144.019-.291.029-.437.04-.269-.342-.486-.722-.738-1.076-.209-.315-.448-.612-.603-.958.12-.178.297-.302.465-.428.527-.378 1.013-.817 1.56-1.165ZM2.862 11.433c.536-.351 1.029-.766 1.573-1.102-.127.925-.1 1.876.044 2.797.158.607.21 1.235.362 1.843.173.7.36 1.399.584 2.085.09.43.278.83.402 1.25.055.147-.03.304-.153.382l-1.714 1.23c-.327-.707-.535-1.463-.763-2.205-.45-1.64-.817-3.333-.748-5.043.013-.302.016-.608.091-.902.043-.16.2-.243.322-.335Zm7.085.515c.149-.157.277-.356.48-.444.314-.09.545.196.77.366.302.228.539.554.896.702l.032.015c.14.168.31.321.367.542-.439.329-.767.779-1.146 1.172-.216.218-.397.486-.67.638-.255-.132-.456-.344-.67-.531-.415-.388-.903-.691-1.28-1.12.392-.462.824-.885 1.22-1.34Zm9.281 1.648c.493.114.975.266 1.47.368.333.079.679.13.989.284.023.173-.046.339-.095.501-.189.552-.34 1.117-.53 1.668-.049.174-.203.327-.394.303-.527-.035-1.015-.316-1.553-.283-.21-.058-.437-.145-.597-.287a1.54 1.54 0 0 1 .06-.017c-.046-.197-.04-.4.032-.59.217-.645.396-1.303.618-1.947Zm5.84 2.597c.674-.117 1.352-.214 2.02-.36-.039 1.094-.236 2.176-.435 3.25-.332 1.625-.82 3.254-1.721 4.655-.117.22-.38.231-.596.264-.595.069-1.177.213-1.774.27.39-.623.707-1.287.96-1.977.051-.14.088-.284.104-.432.342-.985.57-2.006.748-3.033.062-.375.146-.75.146-1.131.157-.42.098-.886.205-1.317.052-.139.22-.157.343-.189Zm-15.551.205c.721-.216 1.47-.314 2.214-.41l.068-.01.004.066c.042.839.254 1.66.318 2.498-.29.17-.635.192-.956.26-.52.085-1.021.266-1.548.304-.14-.751-.247-1.507-.36-2.262a.374.374 0 0 1 .26-.446Zm7.7 1.765c.593-.225 1.172-.494 1.786-.661.307.812.746 1.566 1.015 2.393-.49.19-.985.368-1.475.563-.26.098-.502.25-.776.305-.207.031-.328-.173-.403-.333a14.502 14.502 0 0 1-.613-1.472c-.017.017-.05.054-.067.073-.065-.141-.099-.295-.15-.44a1.9 1.9 0 0 1 .683-.428Zm-3.712.23c.141-.028.29-.053.387.08l-.073-.022c.315.314.736.472 1.102.715.282.19.602.32.873.528-.036.194-.139.365-.23.536-.337.59-.58 1.23-.952 1.8-.616-.394-1.264-.735-1.892-1.107-.167-.092-.322-.276-.243-.48.199-.551.583-1.02.727-1.598.079-.163.202-.3.301-.452ZM4.72 20.648c.533.556 1.148 1.023 1.795 1.435.112.07.228.135.35.183.402.203.77.466 1.176.662.694.339 1.4.65 2.112.945.17.069.349.123.532.151.307.267.744.265 1.085.467.153.1.114.297.112.453-.047.702-.074 1.406-.112 2.11-.337-.247-.755-.323-1.134-.479-1.81-.696-3.614-1.5-5.136-2.733-.31-.26-.624-.524-.878-.842-.154-.183-.09-.437-.08-.653.072-.566-.023-1.153.178-1.7Zm14.42 3.54c.4-.114.69-.449 1.07-.603.1-.02.185.038.256.1.54.48 1.067.974 1.611 1.449-.527.407-1.12.711-1.68 1.069-1.152.667-2.354 1.25-3.612 1.68-.534.188-1.09.303-1.646.405-.23.031-.469.077-.7.028-.152-.08-.27-.206-.396-.32-.418-.4-.895-.74-1.251-1.204.878-.112 1.755-.304 2.57-.662.872-.376 1.752-.74 2.577-1.216.403-.235.83-.436 1.2-.726Z" fill="#1E1E1E" fill-opacity=".5"/></svg>