<svg width="64" height="31" fill="none" xmlns="http://www.w3.org/2000/svg"><path opacity=".6" d="M29.094.807h-6.596v10.281c3.78-1.38 6.596-5.447 6.596-10.281Z" fill="#1E1E1E"/><path d="M.707 23.825c0 3.53 2.742 6.368 6.152 6.368h10.895v-5.908H6.414v-6.522h9.487v-5.908H6.414v-5.14h11.34V.807H.707v23.018ZM22.424 17.917v12.2h5.707v-12.66h9.487v-5.908h-8.969c-3.483 0-6.226 2.915-6.226 6.368ZM30.354 6.715h9.71V.807h-8.45c0 2.148-.445 4.143-1.26 5.908ZM58.074 14.54v9.822s-.667.307-2.816.307c-4.744 0-7.264-3.606-7.264-9.13 0-5.525 2.52-9.131 7.264-9.131 3.78 0 5.707 1.304 5.707 1.304l2.223-5.217S60.372.5 55.332.5c-8.524 0-12.897 6.522-12.897 15.038 0 8.517 4.447 15.039 12.897 15.039 6.3 0 8.523-2.302 8.523-2.302V14.54h-5.78Z" fill="#1E1E1E"/></svg>