<svg width="115" height="41" fill="none" xmlns="http://www.w3.org/2000/svg"><g clip-path="url(#a)"><path d="M16.047 12.937C6.776 19.33.277 27.96.277 27.96l12.159 8.229 1.088-2.703c2.891 5.962 9.093 7.562 12.56 7.478H89.1c3.507.096 9.77-1.483 12.689-7.438.099.247 1.05 2.565 1.05 2.565L115 27.952s-6.601-8.643-15.938-15.027C90.458 7.044 76.261.031 57.49.031a72.776 72.776 0 0 0-41.443 12.906Z" fill="#1E1E1E"/><path d="m39.08 19.466 1.052-2.25H26.646l-1.052 2.25h5.221L25.41 30.48h3.49l5.408-11.013h4.773ZM87.777 26.825c-1.002 1.412-2.422 2.126-3.173 1.597-.75-.535-.544-2.111.459-3.525 1.002-1.413 2.423-2.126 3.174-1.596.749.535.543 2.11-.46 3.524Zm-11.805-.054c-1.004 1.416-2.424 2.128-3.174 1.6-.752-.536-.545-2.112.46-3.531 1.002-1.411 2.422-2.126 3.174-1.594.751.532.541 2.112-.46 3.525Zm-14.664-1.025s.65-2.194 2.77-3.073c0 0 .598-.207.92.056 0 0 .454.442-.086 1.247-.483.718-1.64 2.02-2.896 2.458 0 0-1.138.494-.708-.688Zm-20.591 1.025c-1.004 1.416-2.424 2.128-3.175 1.6-.75-.536-.542-2.112.46-3.531 1.003-1.411 2.423-2.126 3.173-1.594.75.532.544 2.112-.458 3.525Zm50.42 1.723s-.68.313-.975.01c-.294-.304-.032-.868-.032-.868l2.852-5.997h-2.906l-.443.8c-1.698-1.495-4.889-.722-6.868 1.347-1.14 1.194-1.787 2.606-1.874 3.835a8.533 8.533 0 0 1-1.561.82s-.68.31-.974.006c-.294-.304-.032-.868-.032-.868l5.06-10.42h-2.903l-2.655 5.224c-1.696-1.49-4.887-.72-6.865 1.35a7.835 7.835 0 0 0-1.016 1.324v-.01c-.018.036-.04.072-.058.11a7.55 7.55 0 0 0-.176.318c-1.579 2.736-3.542 3.193-3.542 3.193-4.15 1.243-4.626-.792-4.626-.792 4.65-1.723 6.395-3.757 6.238-5.315-.16-1.563-2.3-1.641-2.3-1.641-3.515-.212-6.554 2.248-7.294 4.655a4.49 4.49 0 0 0-.156 2.175c-1.407.748-2.215.868-2.215.868-1.171.37-1.315-.182-1.456-.526-.142-.344-.668-3.339-.668-3.339l4.934-3.23h-3.021l-3.709 2.301c-.833.344-.51-.53-.51-.53l3.026-6.138h-2.905l-4.91 9.96c-.565.335-1.701.998-2.52 1.325 0 0-.68.31-.976.006-.296-.304-.032-.869-.032-.869l2.851-5.994h-2.904l-.446.8c-1.695-1.492-4.886-.72-6.864 1.349-1.978 2.07-2.484 4.798-1.13 6.092 1.084 1.04 3.03.85 4.776-.332 0 0 .443-.382.683.068.25.458 1.25 1.505 3.553.594a16.086 16.086 0 0 0 1.973-.941l-.605 1.226h2.906l1.455-2.948 1.264-.805s.386-.305.543.346c0 0 .626 2.476.87 2.801.244.325.728 1.051 2.769.464a35.227 35.227 0 0 0 3.792-1.332c.683.94 2 1.583 4.151 1.583a10.1 10.1 0 0 0 6.388-2.315c.047.602.309 1.167.738 1.592 1.083 1.04 3.027.849 4.776-.333 0 0 .443-.382.684.068.247.459 1.248 1.505 3.552.595.782-.296 1.53-.674 2.23-1.13.124.323.316.616.564.857 1.083 1.036 3.027.844 4.775-.335 0 0 .443-.38.684.067.248.462 1.248 1.505 3.552.595 2.304-.91 2.967-1.735 2.967-1.735l-.582-1.028a8.96 8.96 0 0 1-1.897 1.048" fill="#fff"/><path d="M99.274 28.218s-1.374 8.027-10.239 8.027H25.997c-8.861 0-10.11-8.1-10.11-8.1-.339-2.15.077-3.62.738-4.639C23.006 15.094 35.633 3.81 57.46 3.81c22.017 0 34.746 11.449 41.129 19.862.736.933 1.01 2.465.684 4.546ZM57.49 2.418c-35.161 0-53.808 24.97-53.808 24.97l7.646 5.17s.924-2.315 3.041-5.63c.002.474.042.946.122 1.413 1.35 10.49 11.536 10.24 11.536 10.24h63.14s10.317.281 11.667-10.203a8.35 8.35 0 0 0 .115-1.367c2.076 3.232 2.989 5.479 2.989 5.479l7.634-5.116S92.651 2.42 57.49 2.42Z" fill="#fff"/></g><defs><clipPath id="a"><path fill="#fff" d="M0 0h115v41H0z"/></clipPath></defs></svg>